<svg width="114" height="54" viewBox="0 0 558 212" fill="none" xmlns="http://www.w3.org/2000/svg">
<mask id="mask0_1801_2380" style="mask-type:alpha" maskUnits="userSpaceOnUse" x="0" y="0" width="558" height="212">
<path d="M52.6 106.4C64.2 106.4 73.4667 110.133 80.4 117.6C87.4667 124.933 91 134.933 91 147.6V207C91 208.105 90.1046 209 89 209H71.4C70.2954 209 69.4 208.105 69.4 207V149.8C69.4 142.333 67.4 136.6 63.4 132.6C59.4 128.6 53.9333 126.6 47 126.6C39.1333 126.6 32.9333 129.067 28.4 134C23.8667 138.8 21.6 145.933 21.6 155.4V207C21.6 208.105 20.7046 209 19.6 209H2C0.895433 209 0 208.105 0 207V71C0 69.8954 0.895431 69 2 69H19.6C20.7046 69 21.6 69.8954 21.6 71V118.424C21.6 119.419 22.9481 119.837 23.5652 119.056C30.2302 110.619 39.9084 106.4 52.6 106.4Z" fill="#FAFAFA"/>
<path d="M196.858 196.4C186.724 206.533 174.258 211.6 159.458 211.6C144.658 211.6 132.191 206.533 122.058 196.4C111.791 186.133 106.658 173.667 106.658 159C106.658 144.333 111.791 131.867 122.058 121.6C132.191 111.467 144.658 106.4 159.458 106.4C174.258 106.4 186.724 111.467 196.858 121.6C207.124 131.867 212.258 144.333 212.258 159C212.258 173.667 207.124 186.133 196.858 196.4ZM128.258 159C128.258 168.067 131.258 175.6 137.258 181.6C143.258 187.6 150.658 190.6 159.458 190.6C168.258 190.6 175.658 187.6 181.658 181.6C187.658 175.6 190.658 168.067 190.658 159C190.658 149.933 187.658 142.4 181.658 136.4C175.658 130.4 168.258 127.4 159.458 127.4C150.658 127.4 143.258 130.4 137.258 136.4C131.258 142.4 128.258 149.933 128.258 159Z" fill="#FAFAFA"/>
<path d="M251.389 207C251.389 208.105 250.494 209 249.389 209H231.789C230.684 209 229.789 208.105 229.789 207V65C229.789 63.8954 230.684 63 231.789 63H249.389C250.494 63 251.389 63.8954 251.389 65V207Z" fill="#FAFAFA"/>
<path d="M351.776 120.771C352.397 121.514 353.669 121.09 353.669 120.121V71C353.669 69.8954 354.564 69 355.669 69H373.269C374.373 69 375.269 69.8954 375.269 71V207C375.269 208.105 374.373 209 373.269 209H355.669C354.564 209 353.669 208.105 353.669 207V197.709C353.669 196.737 352.391 196.315 351.771 197.064C343.758 206.755 332.724 211.6 318.669 211.6C304.935 211.6 293.202 206.533 283.469 196.4C273.735 186.267 268.869 173.8 268.869 159C268.869 144.2 273.735 131.733 283.469 121.6C293.202 111.467 304.935 106.4 318.669 106.4C332.727 106.4 343.763 111.19 351.776 120.771ZM299.469 182C305.469 188 313.002 191 322.069 191C331.135 191 338.669 188 344.669 182C350.669 175.867 353.669 168.2 353.669 159C353.669 149.8 350.669 142.2 344.669 136.2C338.669 130.067 331.135 127 322.069 127C313.002 127 305.469 130.067 299.469 136.2C293.469 142.2 290.469 149.8 290.469 159C290.469 168.067 293.469 175.733 299.469 182Z" fill="#FAFAFA"/>
<path d="M418.045 109C419.15 109 420.045 109.895 420.045 111V121.053C420.045 122.134 421.669 122.512 422.23 121.588C427.758 112.486 436.629 107.703 448.842 107.238C449.946 107.196 450.845 108.095 450.845 109.2V128.465C450.845 129.621 449.867 130.53 448.711 130.518C441.447 130.44 434.958 132.467 429.245 136.6C423.112 141 420.045 148.333 420.045 158.6V207C420.045 208.105 419.15 209 418.045 209H400.445C399.341 209 398.445 208.105 398.445 207V111C398.445 109.895 399.341 109 400.445 109H418.045Z" fill="#FAFAFA"/>
<path fill-rule="evenodd" clip-rule="evenodd" d="M536.005 53.1367C536.005 35.5741 521.768 21.3367 504.205 21.3367C486.642 21.3367 472.405 35.5741 472.405 53.1367C472.405 70.6994 486.642 84.9367 504.205 84.9367C521.768 84.9367 536.005 70.6994 536.005 53.1367ZM504.205 106.137C533.476 106.137 557.205 82.4078 557.205 53.1367C557.205 23.8656 533.476 0.136721 504.205 0.136723C474.934 0.136726 451.205 23.8656 451.205 53.1367C451.205 82.4078 474.934 106.137 504.205 106.137Z" fill="#FAFAFA"/>
</mask>
<g mask="url(#mask0_1801_2380)">
<rect x="-241.251" y="-113.418" width="1023.5" height="452.837" fill="#FAFAFA"/>
<path d="M884.939 156.016C840.145 330.25 674.926 455.537 515.911 435.852C356.896 416.167 264.302 258.964 309.096 84.73C353.89 -89.5042 519.11 -214.791 678.124 -195.106C837.139 -175.421 929.733 -18.218 884.939 156.016Z" fill="url(#paint0_radial_1801_2380)"/>
<path d="M326.692 146.364C370.517 219.721 297.608 307.408 163.845 342.219C30.0833 377.029 -113.879 345.781 -157.703 272.425C-201.528 199.068 -128.619 111.381 5.14332 76.5708C138.905 41.7601 282.868 73.0078 326.692 146.364Z" fill="url(#paint1_radial_1801_2380)"/>
<path d="M240.03 175.02C68.8715 182.073 -75.7386 131.048 -82.9655 61.0521C-90.1924 -8.94344 42.7005 -71.4035 213.859 -78.4564C385.018 -85.5092 529.628 -34.4841 536.855 35.5115C544.082 105.507 411.189 167.967 240.03 175.02Z" fill="url(#paint2_radial_1801_2380)"/>
<path d="M218.314 80.8206C181.817 173.28 49.7476 230.856 -76.6706 209.419C-203.089 187.982 -275.984 95.6503 -239.487 3.1905C-202.99 -89.2693 -70.9208 -146.845 55.4974 -125.408C181.916 -103.971 254.811 -11.6392 218.314 80.8206Z" fill="url(#paint3_radial_1801_2380)"/>
</g>
<defs>
<radialGradient id="paint0_radial_1801_2380" cx="0" cy="0" r="1" gradientUnits="userSpaceOnUse" gradientTransform="translate(597.018 120.373) rotate(104.418) scale(325.738 287.728)">
<stop stop-color="#5F5DF9"/>
<stop offset="1" stop-color="#5F5DF9"/>
</radialGradient>
<radialGradient id="paint1_radial_1801_2380" cx="0" cy="0" r="1" gradientUnits="userSpaceOnUse" gradientTransform="translate(84.4944 209.394) rotate(59.1452) scale(154.722 240.245)">
<stop stop-color="#F3D37E"/>
<stop offset="1" stop-color="#F3D37E"/>
</radialGradient>
<radialGradient id="paint2_radial_1801_2380" cx="0" cy="0" r="1" gradientUnits="userSpaceOnUse" gradientTransform="translate(226.945 48.2818) rotate(177.64) scale(310.173 127.169)">
<stop stop-color="#D478D8"/>
<stop offset="1" stop-color="#D478D8"/>
</radialGradient>
<radialGradient id="paint3_radial_1801_2380" cx="0" cy="0" r="1" gradientUnits="userSpaceOnUse" gradientTransform="translate(-10.5865 42.0055) rotate(111.541) scale(179.984 227.164)">
<stop stop-color="#F04D42"/>
<stop offset="1" stop-color="#F04D42"/>
</radialGradient>
</defs>
</svg>
