<svg width="95" height="29" viewBox="0 0 95 29" fill="none" xmlns="http://www.w3.org/2000/svg">
<mask id="mask0_6_82" style="mask-type:alpha" maskUnits="userSpaceOnUse" x="0" y="0" width="95" height="29">
<path d="M3.54259 18.6629C3.54259 19.0856 3.76455 19.4347 4.20847 19.7104C4.65239 19.9677 5.29977 20.2158 6.15061 20.4547C6.79799 20.6017 7.36214 20.7579 7.84305 20.9233C8.32396 21.0887 8.83262 21.3368 9.36902 21.6676C9.90542 21.98 10.3123 22.4026 10.5898 22.9356C10.8857 23.4501 11.0245 24.0566 11.006 24.7549C11.006 26.0781 10.4881 27.1164 9.45225 27.8698C8.41644 28.6233 7.13093 29 5.59571 29C4.22696 29 3.05243 28.7152 2.07211 28.1455C1.15284 27.6113 0.469412 26.8831 0.0218142 25.9611C-0.0292751 25.8559 0.0125251 25.7305 0.114309 25.6718L2.27254 24.4268C2.39871 24.354 2.56003 24.414 2.61811 24.5468C3.12056 25.6963 4.11309 26.271 5.59571 26.271C7.16792 26.271 7.95403 25.7565 7.95403 24.7273C7.95403 23.9739 7.07544 23.3858 5.31826 22.9631C4.65239 22.7977 4.08824 22.6324 3.62583 22.467C3.18191 22.3016 2.6825 22.0627 2.1276 21.7503C1.5912 21.4378 1.17503 21.0244 0.879081 20.5098C0.601632 19.9952 0.472156 19.398 0.490652 18.718C0.490652 17.45 0.971564 16.4301 1.93339 15.6583C2.91371 14.8864 4.12523 14.5005 5.56797 14.5005C6.71476 14.5005 7.73207 14.7578 8.61991 15.2723C9.45926 15.7319 10.1162 16.3647 10.5907 17.171C10.6542 17.2789 10.6131 17.4161 10.5033 17.4773L8.39927 18.6488C8.27968 18.7154 8.12897 18.6644 8.06411 18.5445C7.57977 17.6495 6.74773 17.2019 5.56797 17.2019C4.97608 17.2019 4.48592 17.3306 4.09749 17.5879C3.72756 17.8451 3.54259 18.2035 3.54259 18.6629Z" fill="#FAFAFA"/>
<path d="M24.9599 26.905C23.5542 28.3017 21.8247 29 19.7716 29C17.7185 29 15.9891 28.3017 14.5833 26.905C13.1591 25.49 12.447 23.7717 12.447 21.7503C12.447 19.7288 13.1591 18.0105 14.5833 16.5955C15.9891 15.1988 17.7185 14.5005 19.7716 14.5005C21.8247 14.5005 23.5542 15.1988 24.9599 16.5955C26.3841 18.0105 27.0963 19.7288 27.0963 21.7503C27.0963 23.7717 26.3841 25.49 24.9599 26.905ZM15.4434 21.7503C15.4434 22.9999 15.8596 24.0382 16.6919 24.8652C17.5243 25.6921 18.5508 26.1056 19.7716 26.1056C20.9924 26.1056 22.019 25.6921 22.8513 24.8652C23.6836 24.0382 24.0998 22.9999 24.0998 21.7503C24.0998 20.5006 23.6836 19.4623 22.8513 18.6353C22.019 17.8084 20.9924 17.3949 19.7716 17.3949C18.5508 17.3949 17.5243 17.8084 16.6919 18.6353C15.8596 19.4623 15.4434 20.5006 15.4434 21.7503Z" fill="#FAFAFA"/>
<path d="M32.1918 28.4115C32.1918 28.5386 32.0879 28.6417 31.9598 28.6417H29.4273C29.2992 28.6417 29.1953 28.5386 29.1953 28.4115V8.74889C29.1953 8.6218 29.2992 8.51877 29.4273 8.51877H31.9598C32.0879 8.51877 32.1918 8.6218 32.1918 8.74889V28.4115Z" fill="#FAFAFA"/>
<path d="M45.8851 16.5349C45.9562 16.6213 46.103 16.5729 46.103 16.4613V15.089C46.103 14.9619 46.2069 14.8589 46.335 14.8589H48.8675C48.9956 14.8589 49.0995 14.9619 49.0995 15.089V28.4115C49.0995 28.5386 48.9956 28.6417 48.8675 28.6417H46.335C46.2069 28.6417 46.103 28.5386 46.103 28.4115V27.015C46.103 26.9032 45.9554 26.8549 45.8846 26.942C44.7695 28.314 43.2239 29 41.2477 29C39.3425 29 37.7148 28.3017 36.3646 26.905C35.0143 25.5084 34.3392 23.7901 34.3392 21.7503C34.3392 19.7104 35.0143 17.9921 36.3646 16.5955C37.7148 15.1988 39.3425 14.5005 41.2477 14.5005C43.2241 14.5005 44.77 15.1786 45.8851 16.5349ZM38.5842 24.9203C39.4165 25.7473 40.4616 26.1608 41.7193 26.1608C42.9771 26.1608 44.0222 25.7473 44.8545 24.9203C45.6869 24.075 46.103 23.0183 46.103 21.7503C46.103 20.4822 45.6869 19.4347 44.8545 18.6078C44.0222 17.7624 42.9771 17.3398 41.7193 17.3398C40.4616 17.3398 39.4165 17.7624 38.5842 18.6078C37.7518 19.4347 37.3357 20.4822 37.3357 21.7503C37.3357 22.9999 37.7518 24.0566 38.5842 24.9203Z" fill="#FAFAFA"/>
<path d="M58.585 29C56.4949 29 54.7469 28.3017 53.3412 26.905C51.954 25.49 51.2603 23.7717 51.2603 21.7503C51.2603 19.692 51.954 17.9738 53.3412 16.5955C54.7469 15.1988 56.4949 14.5005 58.585 14.5005C59.9352 14.5005 61.1653 14.8221 62.2751 15.4653C63.3185 16.07 64.1167 16.8697 64.6696 17.8643C64.729 17.9712 64.689 18.1044 64.5827 18.1657L62.4104 19.4189C62.2928 19.4867 62.1426 19.4397 62.0763 19.3219C61.7642 18.7667 61.3218 18.3265 60.7491 18.0013C60.1202 17.6154 59.3896 17.4225 58.5572 17.4225C57.3365 17.4225 56.3099 17.8359 55.4776 18.6629C54.6637 19.5083 54.2568 20.5374 54.2568 21.7503C54.2568 22.9631 54.6637 23.9923 55.4776 24.8376C56.3099 25.6646 57.3365 26.0781 58.5572 26.0781C59.3711 26.0781 60.1017 25.8943 60.7491 25.5267C61.3414 25.1834 61.8021 24.7311 62.1309 24.1696C62.1978 24.0554 62.3446 24.0106 62.4603 24.0761L64.6319 25.3057C64.7409 25.3674 64.781 25.5041 64.7184 25.612C64.1318 26.6228 63.3081 27.4305 62.2473 28.0352C61.1375 28.6784 59.9167 29 58.585 29Z" fill="#FAFAFA"/>
<path d="M80.3099 22.8241C80.294 22.9361 80.1965 23.0183 80.0826 23.0183H69.5248C69.3771 23.0183 69.2668 23.1535 69.3058 23.2948C69.5535 24.1916 70.0303 24.8989 70.7362 25.4165C71.5315 25.9862 72.5118 26.271 73.6771 26.271C75.1694 26.271 76.3201 25.7578 77.1292 24.7312C77.2033 24.6372 77.3359 24.6082 77.4397 24.6685L79.5129 25.8719C79.6282 25.9389 79.6631 26.0886 79.5853 26.1964C78.2366 28.0655 76.258 29 73.6494 29C71.4113 29 69.5894 28.3201 68.1836 26.9602C66.7964 25.5819 66.1028 23.8452 66.1028 21.7503C66.1028 19.7104 66.7871 17.9921 68.1559 16.5955C69.5061 15.1988 71.2633 14.5005 73.4274 14.5005C75.4436 14.5005 77.1082 15.208 78.4215 16.6231C79.7348 18.0381 80.3914 19.7563 80.3914 21.7778C80.3914 22.0928 80.3642 22.4416 80.3099 22.8241ZM69.2704 20.3202C69.2355 20.4606 69.3454 20.5925 69.4911 20.5925H77.0881C77.2332 20.5925 77.343 20.4616 77.3097 20.3214C77.0833 19.3679 76.64 18.6221 75.9799 18.084C75.2771 17.496 74.417 17.2019 73.3997 17.2019C72.2899 17.2019 71.3651 17.5052 70.6252 18.1116C69.9506 18.6645 69.499 19.4007 69.2704 20.3202Z" fill="#FAFAFA"/>
<path fill-rule="evenodd" clip-rule="evenodd" d="M83.3077 7.25C83.3077 9.65244 85.2708 11.6 87.6923 11.6C90.1139 11.6 92.0769 9.65244 92.0769 7.25C92.0769 4.84756 90.1139 2.9 87.6923 2.9C85.2708 2.9 83.3077 4.84756 83.3077 7.25ZM87.6923 0C83.6564 0 80.3846 3.24594 80.3846 7.25C80.3846 11.2541 83.6564 14.5 87.6923 14.5C91.7283 14.5 95 11.2541 95 7.25C95 3.24594 91.7283 0 87.6923 0Z" fill="#FAFAFA"/>
</mask>
<g mask="url(#mask0_6_82)">
<rect x="-59.0137" y="-39.6565" width="199.534" height="127.672" fill="#FAFAFA"/>
<path d="M98.6873 65.2018C81.739 130.942 20.4095 171.879 -38.2958 156.637C-97.0012 141.395 -130.852 75.7459 -113.904 10.0057C-96.9552 -55.7345 -35.6258 -96.6714 23.0796 -81.4294C81.785 -66.1875 115.636 -0.538437 98.6873 65.2018Z" fill="url(#paint0_radial_6_82)"/>
<path d="M160.54 36.3076C151.807 85.431 119.597 120.754 88.597 115.204C57.5967 109.654 39.5453 65.3327 48.278 16.2093C57.0107 -32.914 89.2206 -68.2372 120.221 -62.6872C151.221 -57.1372 169.273 -12.8157 160.54 36.3076Z" fill="url(#paint1_radial_6_82)"/>
<path d="M72.2146 34.5033C80.3411 55.1861 66.8213 79.9093 42.0174 89.7241C17.2134 99.5389 -9.482 90.7287 -17.6085 70.0458C-25.735 49.363 -12.2153 24.6399 12.5887 14.825C37.3927 5.01023 64.0881 13.8205 72.2146 34.5033Z" fill="url(#paint2_radial_6_82)"/>
<path d="M36.4616 28.2758C0.737003 25.8212 -27.1539 8.15307 -25.8344 -11.187C-24.5149 -30.5271 5.51531 -44.2154 41.24 -41.7608C76.9646 -39.3062 104.855 -21.6381 103.536 -2.29802C102.216 17.042 72.1863 30.7304 36.4616 28.2758Z" fill="url(#paint3_radial_6_82)"/>
</g>
<defs>
<radialGradient id="paint0_radial_6_82" cx="0" cy="0" r="1" gradientUnits="userSpaceOnUse" gradientTransform="translate(-7.60809 37.6037) rotate(104.457) scale(122.925 109.82)">
<stop stop-color="#F04D42"/>
<stop offset="1" stop-color="#F04D42" stop-opacity="0"/>
</radialGradient>
<radialGradient id="paint1_radial_6_82" cx="0" cy="0" r="1" gradientUnits="userSpaceOnUse" gradientTransform="translate(104.409 26.2585) rotate(100.08) scale(90.3402 57.0234)">
<stop stop-color="#5F5DF9"/>
<stop offset="1" stop-color="#5F5DF9" stop-opacity="0"/>
</radialGradient>
<radialGradient id="paint2_radial_6_82" cx="0" cy="0" r="1" gradientUnits="userSpaceOnUse" gradientTransform="translate(27.303 52.2745) rotate(68.5496) scale(40.2365 48.2996)">
<stop stop-color="#F3D37E"/>
<stop offset="1" stop-color="#F3D37E" stop-opacity="0"/>
</radialGradient>
<radialGradient id="paint3_radial_6_82" cx="0" cy="0" r="1" gradientUnits="userSpaceOnUse" gradientTransform="translate(38.8508 -6.74251) rotate(-176.069) scale(64.8377 35.0997)">
<stop stop-color="#D478D8"/>
<stop offset="1" stop-color="#D478D8" stop-opacity="0"/>
</radialGradient>
</defs>
</svg>
