<svg width="1680" height="288" viewBox="0 0 1680 288" fill="none" xmlns="http://www.w3.org/2000/svg">
<mask id="mask0_4_63" style="mask-type:alpha" maskUnits="userSpaceOnUse" x="0" y="0" width="1680" height="288">
<rect width="1680" height="288" fill="#D9D9D9"/>
</mask>
<g mask="url(#mask0_4_63)">
<rect x="-1231.75" y="-714.087" width="4143.51" height="1717.17" fill="#FAFAFA"/>
<path d="M2043.05 696.241C1691.1 1580.44 417.539 2131.03 -801.53 1926.03C-2020.6 1721.03 -2723.54 838.058 -2371.59 -46.1385C-2019.64 -930.335 -746.084 -1480.93 472.985 -1275.93C1692.05 -1070.93 2394.99 -187.955 2043.05 696.241Z" fill="url(#paint0_radial_4_63)"/>
<path d="M3327.47 307.619C3146.13 968.321 2477.26 1443.41 1833.51 1368.77C1189.76 1294.12 814.909 698.002 996.252 37.2996C1177.59 -623.402 1846.46 -1098.49 2490.21 -1023.85C3133.96 -949.201 3508.81 -353.083 3327.47 307.619Z" fill="url(#paint1_radial_4_63)"/>
<path d="M1493.32 283.351C1662.07 561.532 1381.32 894.055 866.244 1026.06C351.168 1158.07 -203.185 1039.57 -371.939 761.393C-540.693 483.213 -259.944 150.689 255.132 18.6814C770.208 -113.326 1324.56 5.17016 1493.32 283.351Z" fill="url(#paint2_radial_4_63)"/>
<path d="M750.875 199.592C9.02118 166.578 -570.158 -71.0557 -542.757 -331.177C-515.357 -591.298 108.247 -775.404 850.101 -742.39C1591.95 -709.376 2171.13 -471.742 2143.73 -211.621C2116.33 48.4996 1492.73 232.606 750.875 199.592Z" fill="url(#paint3_radial_4_63)"/>
</g>
<defs>
<radialGradient id="paint0_radial_4_63" cx="0" cy="0" r="1" gradientUnits="userSpaceOnUse" gradientTransform="translate(-164.272 325.051) rotate(111.705) scale(1723.15 2188.1)">
<stop stop-color="#F04D42"/>
<stop offset="1" stop-color="#F04D42" stop-opacity="0"/>
</radialGradient>
<radialGradient id="paint1_radial_4_63" cx="0" cy="0" r="1" gradientUnits="userSpaceOnUse" gradientTransform="translate(2161.86 172.459) rotate(105.348) scale(1240.55 1159.81)">
<stop stop-color="#5F5DF9"/>
<stop offset="1" stop-color="#5F5DF9" stop-opacity="0"/>
</radialGradient>
<radialGradient id="paint2_radial_4_63" cx="0" cy="0" r="1" gradientUnits="userSpaceOnUse" gradientTransform="translate(560.688 522.371) rotate(58.7576) scale(589.126 921.349)">
<stop stop-color="#F3D37E"/>
<stop offset="1" stop-color="#F3D37E" stop-opacity="0"/>
</radialGradient>
<radialGradient id="paint3_radial_4_63" cx="0" cy="0" r="1" gradientUnits="userSpaceOnUse" gradientTransform="translate(800.488 -271.399) rotate(-177.452) scale(1344.57 472.731)">
<stop stop-color="#D478D8"/>
<stop offset="1" stop-color="#D478D8" stop-opacity="0"/>
</radialGradient>
</defs>
</svg>
