<svg width="1440" height="810" viewBox="0 0 1440 810" fill="none" xmlns="http://www.w3.org/2000/svg">
<g clip-path="url(#clip0_1847_347)">
<rect x="-552.75" y="-406.374" width="2545.5" height="1622.49" fill="#FAFAFA"/>
<path d="M2248.14 559C2136.73 1183.27 1725.83 1632.17 1330.35 1561.64C934.872 1491.11 704.586 927.857 815.991 303.584C927.395 -320.689 1338.3 -769.586 1733.78 -699.055C2129.26 -628.524 2359.54 -65.2737 2248.14 559Z" fill="#5F5DF9"/>
<path d="M859.752 524.418C968.746 787.251 787.418 1101.43 454.745 1226.15C122.072 1350.88 -235.969 1238.92 -344.962 976.087C-453.956 713.253 -272.628 399.075 60.0451 274.35C392.718 149.625 750.759 261.584 859.752 524.418Z" fill="#F3D37E"/>
<path d="M719.851 531.291C294.171 556.561 -65.4808 373.74 -83.4545 122.949C-101.428 -127.842 229.083 -351.634 654.762 -376.904C1080.44 -402.174 1440.09 -219.353 1458.07 31.4379C1476.04 282.229 1145.53 506.021 719.851 531.291Z" fill="#D478D8"/>
<path d="M615.42 244.199C524.65 575.478 196.188 781.768 -118.22 704.96C-432.627 628.153 -613.922 297.333 -523.151 -33.9466C-432.381 -365.226 -103.92 -571.516 210.488 -494.708C524.896 -417.901 706.19 -87.0806 615.42 244.199Z" fill="#F04D42"/>
</g>
<defs>
<clipPath id="clip0_1847_347">
<rect width="1440" height="809.748" fill="white"/>
</clipPath>
</defs>
</svg>
